<svg xmlns="http://www.w3.org/2000/svg" xmlns:xlink="http://www.w3.org/1999/xlink" width="40" zoomAndPan="magnify" viewBox="0 0 30 30.000001" height="40" preserveAspectRatio="xMidYMid meet" version="1.0"><defs><g/><clipPath id="id1"><path d="M 22 7 L 24.273438 7 L 24.273438 9 L 22 9 Z M 22 7 " clip-rule="nonzero"/></clipPath><clipPath id="id2"><path d="M 17 12 L 20 12 L 20 14.019531 L 17 14.019531 Z M 17 12 " clip-rule="nonzero"/></clipPath><clipPath id="id3"><path d="M 15 1.679688 L 18 1.679688 L 18 4 L 15 4 Z M 15 1.679688 " clip-rule="nonzero"/></clipPath><clipPath id="id4"><path d="M 5.402344 1.679688 L 22 1.679688 L 22 14.019531 L 5.402344 14.019531 Z M 5.402344 1.679688 " clip-rule="nonzero"/></clipPath><clipPath id="id5"><path d="M 14.285156 6.90625 C 14.648438 7.0625 14.90625 7.429688 14.90625 7.855469 C 14.90625 8.28125 14.648438 8.644531 14.285156 8.804688 L 11.625 10.347656 L 9 11.867188 C 8.824219 12.011719 8.601562 12.097656 8.355469 12.097656 C 7.789062 12.097656 7.328125 11.632812 7.328125 11.066406 L 7.328125 4.636719 C 7.328125 4.066406 7.789062 3.605469 8.355469 3.605469 C 8.613281 3.605469 8.851562 3.703125 9.03125 3.859375 L 11.625 5.363281 Z M 13.417969 11.527344 C 13.519531 11.402344 13.664062 11.316406 13.832031 11.289062 C 13.945312 11.269531 13.988281 11.277344 14.105469 11.277344 L 19.433594 11.277344 C 19.808594 11.277344 20.117188 10.96875 20.117188 10.59375 C 20.117188 10.214844 19.808594 9.90625 19.433594 9.90625 L 17.132812 9.90625 C 16.753906 9.90625 16.449219 9.597656 16.449219 9.222656 C 16.449219 8.84375 16.757812 8.535156 17.132812 8.535156 L 20.738281 8.535156 C 21.113281 8.535156 21.421875 8.226562 21.421875 7.851562 C 21.421875 7.472656 21.113281 7.164062 20.738281 7.164062 L 17.132812 7.164062 C 16.757812 7.164062 16.449219 6.859375 16.449219 6.480469 L 16.453125 6.421875 C 16.421875 6.363281 16.589844 5.796875 17.132812 5.796875 L 19.617188 5.796875 C 19.992188 5.796875 20.296875 5.488281 20.296875 5.109375 C 20.296875 4.734375 19.992188 4.425781 19.617188 4.425781 L 14.105469 4.425781 C 13.976562 4.425781 13.949219 4.429688 13.8125 4.410156 C 13.660156 4.382812 13.527344 4.300781 13.429688 4.191406 C 13.324219 4.070312 13.261719 3.910156 13.261719 3.738281 C 13.261719 3.363281 13.566406 3.054688 13.941406 3.054688 C 14.316406 3.054688 14.625 2.746094 14.625 2.367188 C 14.625 1.992188 14.316406 1.683594 13.941406 1.683594 L 8.355469 1.683594 C 6.734375 1.683594 5.414062 3.007812 5.414062 4.636719 L 5.414062 11.066406 C 5.414062 12.695312 6.734375 14.019531 8.355469 14.019531 L 16.621094 14.019531 C 16.996094 14.019531 17.304688 13.714844 17.304688 13.335938 C 17.304688 12.957031 16.996094 12.652344 16.621094 12.652344 L 13.941406 12.652344 C 13.371094 12.652344 13.050781 11.976562 13.417969 11.527344 Z M 13.417969 11.527344 " clip-rule="evenodd"/></clipPath><linearGradient x1="60.574507" gradientTransform="matrix(0.0382539, 0, 0, 0.0384383, 5.41503, 1.681401)" y1="364.468662" x2="354.903901" gradientUnits="userSpaceOnUse" y2="-45.55024" id="id6"><stop stop-opacity="1" stop-color="rgb(0%, 71.177673%, 94.216919%)" offset="0"/><stop stop-opacity="1" stop-color="rgb(0%, 71.330261%, 94.247437%)" offset="0.015625"/><stop stop-opacity="1" stop-color="rgb(0%, 71.635437%, 94.308472%)" offset="0.03125"/><stop stop-opacity="1" stop-color="rgb(0%, 71.942139%, 94.369507%)" offset="0.046875"/><stop stop-opacity="1" stop-color="rgb(0%, 72.247314%, 94.430542%)" offset="0.0625"/><stop stop-opacity="1" stop-color="rgb(0%, 72.554016%, 94.493103%)" offset="0.078125"/><stop stop-opacity="1" stop-color="rgb(0%, 72.859192%, 94.554138%)" offset="0.09375"/><stop stop-opacity="1" stop-color="rgb(0%, 73.164368%, 94.615173%)" offset="0.109375"/><stop stop-opacity="1" stop-color="rgb(0%, 73.471069%, 94.676208%)" offset="0.125"/><stop stop-opacity="1" stop-color="rgb(0%, 73.776245%, 94.737244%)" offset="0.140625"/><stop stop-opacity="1" stop-color="rgb(0%, 74.082947%, 94.799805%)" offset="0.15625"/><stop stop-opacity="1" stop-color="rgb(0%, 74.388123%, 94.86084%)" offset="0.171875"/><stop stop-opacity="1" stop-color="rgb(0%, 74.694824%, 94.921875%)" offset="0.1875"/><stop stop-opacity="1" stop-color="rgb(0%, 75%, 94.98291%)" offset="0.203125"/><stop stop-opacity="1" stop-color="rgb(0%, 75.306702%, 95.045471%)" offset="0.21875"/><stop stop-opacity="1" stop-color="rgb(0%, 75.611877%, 95.106506%)" offset="0.234375"/><stop stop-opacity="1" stop-color="rgb(0%, 75.917053%, 95.167542%)" offset="0.25"/><stop stop-opacity="1" stop-color="rgb(0%, 76.223755%, 95.228577%)" offset="0.265625"/><stop stop-opacity="1" stop-color="rgb(0%, 76.528931%, 95.289612%)" offset="0.28125"/><stop stop-opacity="1" stop-color="rgb(0%, 76.835632%, 95.352173%)" offset="0.296875"/><stop stop-opacity="1" stop-color="rgb(0%, 77.140808%, 95.413208%)" offset="0.3125"/><stop stop-opacity="1" stop-color="rgb(0%, 77.44751%, 95.474243%)" offset="0.328125"/><stop stop-opacity="1" stop-color="rgb(0%, 77.752686%, 95.535278%)" offset="0.34375"/><stop stop-opacity="1" stop-color="rgb(0%, 78.059387%, 95.596313%)" offset="0.359375"/><stop stop-opacity="1" stop-color="rgb(0%, 78.364563%, 95.658875%)" offset="0.375"/><stop stop-opacity="1" stop-color="rgb(0%, 78.669739%, 95.71991%)" offset="0.390625"/><stop stop-opacity="1" stop-color="rgb(0%, 78.97644%, 95.780945%)" offset="0.40625"/><stop stop-opacity="1" stop-color="rgb(0%, 79.281616%, 95.84198%)" offset="0.421875"/><stop stop-opacity="1" stop-color="rgb(0%, 79.588318%, 95.904541%)" offset="0.4375"/><stop stop-opacity="1" stop-color="rgb(0%, 79.893494%, 95.965576%)" offset="0.453125"/><stop stop-opacity="1" stop-color="rgb(0%, 80.200195%, 96.026611%)" offset="0.46875"/><stop stop-opacity="1" stop-color="rgb(0%, 80.505371%, 96.087646%)" offset="0.483391"/><stop stop-opacity="1" stop-color="rgb(0%, 80.659485%, 96.118164%)" offset="0.484375"/><stop stop-opacity="1" stop-color="rgb(0%, 80.812073%, 96.148682%)" offset="0.5"/><stop stop-opacity="1" stop-color="rgb(0%, 81.117249%, 96.211243%)" offset="0.515625"/><stop stop-opacity="1" stop-color="rgb(0%, 81.422424%, 96.272278%)" offset="0.516609"/><stop stop-opacity="1" stop-color="rgb(0%, 81.576538%, 96.302795%)" offset="0.53125"/><stop stop-opacity="1" stop-color="rgb(0%, 81.729126%, 96.333313%)" offset="0.546875"/><stop stop-opacity="1" stop-color="rgb(0%, 82.034302%, 96.394348%)" offset="0.5625"/><stop stop-opacity="1" stop-color="rgb(0%, 82.341003%, 96.456909%)" offset="0.578125"/><stop stop-opacity="1" stop-color="rgb(0%, 82.646179%, 96.517944%)" offset="0.59375"/><stop stop-opacity="1" stop-color="rgb(0%, 82.952881%, 96.578979%)" offset="0.609375"/><stop stop-opacity="1" stop-color="rgb(0%, 83.258057%, 96.640015%)" offset="0.625"/><stop stop-opacity="1" stop-color="rgb(0%, 83.564758%, 96.70105%)" offset="0.640625"/><stop stop-opacity="1" stop-color="rgb(0%, 83.869934%, 96.763611%)" offset="0.65625"/><stop stop-opacity="1" stop-color="rgb(0%, 84.17511%, 96.824646%)" offset="0.671875"/><stop stop-opacity="1" stop-color="rgb(0%, 84.481812%, 96.885681%)" offset="0.6875"/><stop stop-opacity="1" stop-color="rgb(0%, 84.786987%, 96.946716%)" offset="0.703125"/><stop stop-opacity="1" stop-color="rgb(0%, 85.093689%, 97.007751%)" offset="0.71875"/><stop stop-opacity="1" stop-color="rgb(0%, 85.398865%, 97.070312%)" offset="0.734375"/><stop stop-opacity="1" stop-color="rgb(0%, 85.705566%, 97.131348%)" offset="0.75"/><stop stop-opacity="1" stop-color="rgb(0%, 86.010742%, 97.192383%)" offset="0.765625"/><stop stop-opacity="1" stop-color="rgb(0%, 86.315918%, 97.253418%)" offset="0.78125"/><stop stop-opacity="1" stop-color="rgb(0%, 86.62262%, 97.315979%)" offset="0.796875"/><stop stop-opacity="1" stop-color="rgb(0%, 86.927795%, 97.377014%)" offset="0.8125"/><stop stop-opacity="1" stop-color="rgb(0%, 87.234497%, 97.438049%)" offset="0.828125"/><stop stop-opacity="1" stop-color="rgb(0%, 87.539673%, 97.499084%)" offset="0.84375"/><stop stop-opacity="1" stop-color="rgb(0%, 87.846375%, 97.56012%)" offset="0.859375"/><stop stop-opacity="1" stop-color="rgb(0%, 88.15155%, 97.622681%)" offset="0.875"/><stop stop-opacity="1" stop-color="rgb(0%, 88.458252%, 97.683716%)" offset="0.890625"/><stop stop-opacity="1" stop-color="rgb(0%, 88.763428%, 97.744751%)" offset="0.90625"/><stop stop-opacity="1" stop-color="rgb(0%, 89.068604%, 97.805786%)" offset="0.921875"/><stop stop-opacity="1" stop-color="rgb(0%, 89.375305%, 97.866821%)" offset="0.9375"/><stop stop-opacity="1" stop-color="rgb(0%, 89.680481%, 97.929382%)" offset="0.953125"/><stop stop-opacity="1" stop-color="rgb(0%, 89.987183%, 97.990417%)" offset="0.96875"/><stop stop-opacity="1" stop-color="rgb(0%, 90.292358%, 98.051453%)" offset="0.984375"/><stop stop-opacity="1" stop-color="rgb(0%, 90.59906%, 98.112488%)" offset="1"/></linearGradient></defs><path fill="#373435" d="M 21.71875 4.421875 C 21.34375 4.421875 21.039062 4.730469 21.039062 5.109375 C 21.039062 5.484375 21.34375 5.792969 21.71875 5.792969 L 22.453125 5.792969 C 22.828125 5.792969 23.136719 5.484375 23.136719 5.109375 C 23.136719 4.730469 22.828125 4.421875 22.453125 4.421875 Z M 21.71875 4.421875 " fill-opacity="1" fill-rule="evenodd"/><g clip-path="url(#id1)"><path fill="#373435" d="M 22.710938 7.164062 C 22.335938 7.164062 22.027344 7.472656 22.027344 7.851562 C 22.027344 8.226562 22.335938 8.535156 22.710938 8.535156 L 23.574219 8.535156 C 23.949219 8.535156 24.257812 8.226562 24.257812 7.851562 C 24.257812 7.472656 23.953125 7.164062 23.574219 7.164062 Z M 22.710938 7.164062 " fill-opacity="1" fill-rule="evenodd"/></g><path fill="#373435" d="M 22.273438 9.90625 L 21.539062 9.90625 C 21.164062 9.90625 20.855469 10.214844 20.855469 10.59375 C 20.855469 10.96875 21.164062 11.277344 21.539062 11.277344 L 22.273438 11.277344 C 22.648438 11.277344 22.953125 10.96875 22.953125 10.59375 C 22.953125 10.214844 22.648438 9.90625 22.273438 9.90625 Z M 22.273438 9.90625 " fill-opacity="1" fill-rule="evenodd"/><g clip-path="url(#id2)"><path fill="#373435" d="M 19.898438 13.335938 C 19.898438 12.957031 19.589844 12.648438 19.214844 12.648438 L 18.464844 12.648438 C 18.089844 12.648438 17.785156 12.957031 17.785156 13.335938 C 17.785156 13.710938 18.089844 14.019531 18.464844 14.019531 L 19.214844 14.019531 C 19.589844 14.019531 19.898438 13.710938 19.898438 13.335938 Z M 19.898438 13.335938 " fill-opacity="1" fill-rule="evenodd"/></g><g clip-path="url(#id3)"><path fill="#373435" d="M 16.535156 3.050781 C 16.910156 3.050781 17.21875 2.742188 17.21875 2.367188 C 17.21875 1.988281 16.910156 1.679688 16.535156 1.679688 L 15.789062 1.679688 C 15.410156 1.679688 15.105469 1.988281 15.105469 2.367188 C 15.105469 2.742188 15.414062 3.050781 15.789062 3.050781 Z M 16.535156 3.050781 " fill-opacity="1" fill-rule="evenodd"/></g><g clip-path="url(#id4)"><g clip-path="url(#id5)"><path fill="url(#id6)" d="M 5.414062 1.683594 L 5.414062 14.019531 L 21.421875 14.019531 L 21.421875 1.683594 Z M 5.414062 1.683594 " fill-rule="nonzero"/></g></g><g fill="#ffffff" fill-opacity="1"><g transform="translate(1.62925, 21.909063)"><g><path d="M -0.390625 0 L 0.890625 -5.5625 L 3.125 -5.5625 L 2.875 -4.484375 L 1.765625 -4.484375 L 1.5625 -3.59375 L 2.609375 -3.59375 L 2.359375 -2.53125 L 1.3125 -2.53125 L 0.71875 0 Z M -0.390625 0 "/></g></g></g><g fill="#ffffff" fill-opacity="1"><g transform="translate(4.218054, 21.909063)"><g><path d="M 0.53125 0.046875 C 0.164062 0.046875 -0.0546875 -0.0703125 -0.140625 -0.3125 C -0.222656 -0.5625 -0.210938 -0.910156 -0.109375 -1.359375 C -0.015625 -1.734375 0.0976562 -2.019531 0.234375 -2.21875 C 0.378906 -2.414062 0.546875 -2.5625 0.734375 -2.65625 C 0.929688 -2.75 1.222656 -2.851562 1.609375 -2.96875 L 1.9375 -3.0625 L 1.9375 -3.078125 L 2.0625 -3.546875 C 2.082031 -3.671875 2.078125 -3.765625 2.046875 -3.828125 C 2.015625 -3.898438 1.960938 -3.9375 1.890625 -3.9375 C 1.828125 -3.9375 1.765625 -3.910156 1.703125 -3.859375 C 1.648438 -3.804688 1.613281 -3.726562 1.59375 -3.625 L 1.53125 -3.34375 L 0.421875 -3.34375 L 0.453125 -3.5 C 0.566406 -3.96875 0.753906 -4.300781 1.015625 -4.5 C 1.273438 -4.695312 1.65625 -4.796875 2.15625 -4.796875 C 2.550781 -4.796875 2.847656 -4.691406 3.046875 -4.484375 C 3.242188 -4.285156 3.296875 -4 3.203125 -3.625 L 2.375 0 L 1.25 0 L 1.375 -0.5625 C 1.269531 -0.363281 1.144531 -0.210938 1 -0.109375 C 0.851562 -0.00390625 0.695312 0.046875 0.53125 0.046875 Z M 1.1875 -0.828125 C 1.269531 -0.828125 1.335938 -0.863281 1.390625 -0.9375 C 1.441406 -1.007812 1.476562 -1.097656 1.5 -1.203125 L 1.8125 -2.515625 C 1.625 -2.453125 1.476562 -2.367188 1.375 -2.265625 C 1.269531 -2.171875 1.203125 -2.035156 1.171875 -1.859375 L 1.03125 -1.25 C 0.957031 -0.96875 1.007812 -0.828125 1.1875 -0.828125 Z M 1.1875 -0.828125 "/></g></g></g><g fill="#ffffff" fill-opacity="1"><g transform="translate(7.351862, 21.909063)"><g><path d="M 0.96875 0.046875 C 0.03125 0.046875 -0.328125 -0.425781 -0.109375 -1.375 L -0.015625 -1.75 L 1.125 -1.75 L 1 -1.1875 C 0.96875 -1.082031 0.96875 -1 1 -0.9375 C 1.03125 -0.875 1.097656 -0.84375 1.203125 -0.84375 C 1.347656 -0.84375 1.453125 -0.96875 1.515625 -1.21875 C 1.554688 -1.394531 1.550781 -1.535156 1.5 -1.640625 C 1.457031 -1.742188 1.367188 -1.859375 1.234375 -1.984375 L 0.75 -2.4375 C 0.570312 -2.601562 0.457031 -2.769531 0.40625 -2.9375 C 0.351562 -3.113281 0.363281 -3.351562 0.4375 -3.65625 C 0.5 -3.90625 0.613281 -4.113281 0.78125 -4.28125 C 0.945312 -4.445312 1.144531 -4.570312 1.375 -4.65625 C 1.601562 -4.75 1.847656 -4.796875 2.109375 -4.796875 C 3.023438 -4.796875 3.378906 -4.335938 3.171875 -3.421875 L 3.15625 -3.328125 L 1.984375 -3.328125 L 2.015625 -3.515625 C 2.046875 -3.628906 2.050781 -3.722656 2.03125 -3.796875 C 2.007812 -3.878906 1.957031 -3.921875 1.875 -3.921875 C 1.789062 -3.921875 1.722656 -3.894531 1.671875 -3.84375 C 1.628906 -3.800781 1.597656 -3.742188 1.578125 -3.671875 C 1.535156 -3.492188 1.570312 -3.359375 1.6875 -3.265625 L 2.265625 -2.75 C 2.472656 -2.570312 2.617188 -2.375 2.703125 -2.15625 C 2.785156 -1.9375 2.789062 -1.660156 2.71875 -1.328125 C 2.613281 -0.878906 2.40625 -0.535156 2.09375 -0.296875 C 1.789062 -0.0664062 1.414062 0.046875 0.96875 0.046875 Z M 0.96875 0.046875 "/></g></g></g><g fill="#ffffff" fill-opacity="1"><g transform="translate(10.433768, 21.909063)"><g><path d="M 0.5625 0.046875 C 0.257812 0.046875 0.0664062 -0.015625 -0.015625 -0.140625 C -0.0976562 -0.265625 -0.109375 -0.460938 -0.046875 -0.734375 L 0.640625 -3.703125 L 0.328125 -3.703125 L 0.515625 -4.5625 L 0.84375 -4.5625 L 1.0625 -5.5625 L 2.171875 -5.5625 L 1.9375 -4.5625 L 2.265625 -4.5625 L 2.0625 -3.703125 L 1.75 -3.703125 L 1.125 -1.03125 C 1.101562 -0.957031 1.09375 -0.898438 1.09375 -0.859375 C 1.101562 -0.816406 1.132812 -0.796875 1.1875 -0.796875 C 1.238281 -0.796875 1.28125 -0.796875 1.3125 -0.796875 C 1.351562 -0.804688 1.382812 -0.8125 1.40625 -0.8125 L 1.21875 -0.03125 C 1.144531 -0.0078125 1.046875 0.00390625 0.921875 0.015625 C 0.796875 0.0351562 0.675781 0.046875 0.5625 0.046875 Z M 0.5625 0.046875 "/></g></g></g><g fill="#ffffff" fill-opacity="1"><g transform="translate(12.412671, 21.909063)"><g><path d="M -0.390625 0 L 0.890625 -5.5625 L 2.59375 -5.5625 L 2.265625 -2.171875 L 3.515625 -5.5625 L 5.234375 -5.5625 L 3.953125 0 L 2.9375 0 L 3.859375 -4.015625 L 2.28125 0 L 1.296875 0 L 1.53125 -4.015625 L 0.609375 0 Z M -0.390625 0 "/></g></g></g><g fill="#ffffff" fill-opacity="1"><g transform="translate(17.252881, 21.909063)"><g><path d="M 1 0.046875 C 0.507812 0.046875 0.1875 -0.0820312 0.03125 -0.34375 C -0.113281 -0.613281 -0.125 -1.015625 0 -1.546875 L 0.4375 -3.453125 C 0.539062 -3.890625 0.742188 -4.222656 1.046875 -4.453125 C 1.347656 -4.679688 1.722656 -4.796875 2.171875 -4.796875 C 3.085938 -4.796875 3.441406 -4.347656 3.234375 -3.453125 L 3.15625 -3.109375 C 3.070312 -2.765625 3 -2.484375 2.9375 -2.265625 L 1.296875 -2.265625 L 1.09375 -1.34375 C 1.050781 -1.1875 1.035156 -1.0625 1.046875 -0.96875 C 1.054688 -0.875 1.117188 -0.828125 1.234375 -0.828125 C 1.328125 -0.828125 1.394531 -0.851562 1.4375 -0.90625 C 1.488281 -0.957031 1.523438 -1.015625 1.546875 -1.078125 C 1.566406 -1.148438 1.59375 -1.25 1.625 -1.375 L 1.734375 -1.828125 L 2.859375 -1.828125 L 2.796875 -1.5625 C 2.671875 -1.007812 2.46875 -0.601562 2.1875 -0.34375 C 1.914062 -0.0820312 1.519531 0.046875 1 0.046875 Z M 1.953125 -2.828125 L 2.09375 -3.4375 C 2.175781 -3.78125 2.132812 -3.953125 1.96875 -3.953125 C 1.769531 -3.953125 1.632812 -3.78125 1.5625 -3.4375 L 1.421875 -2.828125 Z M 1.953125 -2.828125 "/></g></g></g><g fill="#ffffff" fill-opacity="1"><g transform="translate(20.419136, 21.909063)"><g><path d="M 0.5 0.046875 C 0.226562 0.046875 0.0390625 -0.015625 -0.0625 -0.140625 C -0.175781 -0.273438 -0.226562 -0.453125 -0.21875 -0.671875 C -0.21875 -0.890625 -0.179688 -1.171875 -0.109375 -1.515625 L 0.40625 -3.65625 C 0.476562 -3.988281 0.625 -4.257812 0.84375 -4.46875 C 1.070312 -4.6875 1.335938 -4.796875 1.640625 -4.796875 C 1.953125 -4.796875 2.160156 -4.695312 2.265625 -4.5 L 2.515625 -5.609375 L 3.65625 -5.609375 L 2.359375 0 L 1.21875 0 L 1.34375 -0.5 C 1.238281 -0.320312 1.117188 -0.1875 0.984375 -0.09375 C 0.847656 0 0.6875 0.046875 0.5 0.046875 Z M 1.140625 -0.84375 C 1.253906 -0.84375 1.34375 -0.894531 1.40625 -1 C 1.46875 -1.113281 1.519531 -1.265625 1.5625 -1.453125 L 1.609375 -1.640625 L 2.015625 -3.4375 C 2.046875 -3.570312 2.050781 -3.6875 2.03125 -3.78125 C 2.019531 -3.875 1.96875 -3.921875 1.875 -3.921875 C 1.757812 -3.921875 1.671875 -3.875 1.609375 -3.78125 C 1.554688 -3.695312 1.507812 -3.582031 1.46875 -3.4375 L 1.015625 -1.4375 C 0.921875 -1.039062 0.960938 -0.84375 1.140625 -0.84375 Z M 1.140625 -0.84375 "/></g></g></g><g fill="#ffffff" fill-opacity="1"><g transform="translate(23.650271, 21.909063)"><g><path d="M 0.71875 -5.0625 L 0.890625 -5.859375 L 2.03125 -5.859375 L 1.84375 -5.0625 Z M -0.453125 0 L 0.640625 -4.75 L 1.78125 -4.75 L 0.6875 0 Z M -0.453125 0 "/></g></g></g><g fill="#ffffff" fill-opacity="1"><g transform="translate(25.226906, 21.909063)"><g><path d="M 0.53125 0.046875 C 0.164062 0.046875 -0.0546875 -0.0703125 -0.140625 -0.3125 C -0.222656 -0.5625 -0.210938 -0.910156 -0.109375 -1.359375 C -0.015625 -1.734375 0.0976562 -2.019531 0.234375 -2.21875 C 0.378906 -2.414062 0.546875 -2.5625 0.734375 -2.65625 C 0.929688 -2.75 1.222656 -2.851562 1.609375 -2.96875 L 1.9375 -3.0625 L 1.9375 -3.078125 L 2.0625 -3.546875 C 2.082031 -3.671875 2.078125 -3.765625 2.046875 -3.828125 C 2.015625 -3.898438 1.960938 -3.9375 1.890625 -3.9375 C 1.828125 -3.9375 1.765625 -3.910156 1.703125 -3.859375 C 1.648438 -3.804688 1.613281 -3.726562 1.59375 -3.625 L 1.53125 -3.34375 L 0.421875 -3.34375 L 0.453125 -3.5 C 0.566406 -3.96875 0.753906 -4.300781 1.015625 -4.5 C 1.273438 -4.695312 1.65625 -4.796875 2.15625 -4.796875 C 2.550781 -4.796875 2.847656 -4.691406 3.046875 -4.484375 C 3.242188 -4.285156 3.296875 -4 3.203125 -3.625 L 2.375 0 L 1.25 0 L 1.375 -0.5625 C 1.269531 -0.363281 1.144531 -0.210938 1 -0.109375 C 0.851562 -0.00390625 0.695312 0.046875 0.53125 0.046875 Z M 1.1875 -0.828125 C 1.269531 -0.828125 1.335938 -0.863281 1.390625 -0.9375 C 1.441406 -1.007812 1.476562 -1.097656 1.5 -1.203125 L 1.8125 -2.515625 C 1.625 -2.453125 1.476562 -2.367188 1.375 -2.265625 C 1.269531 -2.171875 1.203125 -2.035156 1.171875 -1.859375 L 1.03125 -1.25 C 0.957031 -0.96875 1.007812 -0.828125 1.1875 -0.828125 Z M 1.1875 -0.828125 "/></g></g></g><g fill="#ffffff" fill-opacity="1"><g transform="translate(5.834219, 26.713396)"><g><path d="M 0.796875 -1.5625 L 0.234375 -1.5625 L 0.3125 -1.90625 L 1.84375 -1.90625 L 1.765625 -1.5625 L 1.203125 -1.5625 L 0.875 0 L 0.46875 0 Z M 0.796875 -1.5625 "/></g></g></g><g fill="#ffffff" fill-opacity="1"><g transform="translate(7.405122, 26.713396)"><g><path d="M 0.40625 -1.90625 L 1.734375 -1.90625 L 1.65625 -1.5625 L 0.75 -1.5625 L 0.65625 -1.125 L 1.328125 -1.125 L 1.265625 -0.78125 L 0.59375 -0.78125 L 0.5 -0.34375 L 1.40625 -0.34375 L 1.328125 0 L 0 0 Z M 0.40625 -1.90625 "/></g></g></g><g fill="#ffffff" fill-opacity="1"><g transform="translate(8.891335, 26.713396)"><g><path d="M 0.96875 0.046875 C 0.800781 0.046875 0.65625 0.015625 0.53125 -0.046875 C 0.40625 -0.109375 0.304688 -0.195312 0.234375 -0.3125 C 0.160156 -0.425781 0.125 -0.5625 0.125 -0.71875 C 0.125 -0.789062 0.132812 -0.867188 0.15625 -0.953125 C 0.195312 -1.160156 0.273438 -1.335938 0.390625 -1.484375 C 0.503906 -1.628906 0.644531 -1.742188 0.8125 -1.828125 C 0.988281 -1.910156 1.179688 -1.953125 1.390625 -1.953125 C 1.660156 -1.953125 1.867188 -1.890625 2.015625 -1.765625 L 1.9375 -1.375 C 1.875 -1.445312 1.789062 -1.492188 1.6875 -1.515625 C 1.59375 -1.546875 1.484375 -1.5625 1.359375 -1.5625 C 1.160156 -1.5625 0.988281 -1.503906 0.84375 -1.390625 C 0.707031 -1.285156 0.617188 -1.140625 0.578125 -0.953125 C 0.554688 -0.878906 0.546875 -0.8125 0.546875 -0.75 C 0.546875 -0.613281 0.585938 -0.507812 0.671875 -0.4375 C 0.765625 -0.375 0.90625 -0.34375 1.09375 -0.34375 C 1.226562 -0.34375 1.347656 -0.359375 1.453125 -0.390625 C 1.566406 -0.421875 1.675781 -0.46875 1.78125 -0.53125 L 1.703125 -0.140625 C 1.503906 -0.015625 1.257812 0.046875 0.96875 0.046875 Z M 0.96875 0.046875 "/></g></g></g><g fill="#ffffff" fill-opacity="1"><g transform="translate(10.743635, 26.713396)"><g><path d="M 0.40625 -1.90625 L 0.828125 -1.90625 L 0.671875 -1.140625 L 1.5 -1.140625 L 1.65625 -1.90625 L 2.078125 -1.90625 L 1.671875 0 L 1.25 0 L 1.421875 -0.796875 L 0.59375 -0.796875 L 0.421875 0 L 0 0 Z M 0.40625 -1.90625 "/></g></g></g><g fill="#ffffff" fill-opacity="1"><g transform="translate(12.650575, 26.713396)"><g><path d="M 0.40625 -1.90625 L 0.8125 -1.90625 L 1.34375 -0.671875 L 1.609375 -1.90625 L 2.03125 -1.90625 L 1.625 0 L 1.21875 0 L 0.6875 -1.234375 L 0.421875 0 L 0 0 Z M 0.40625 -1.90625 "/></g></g></g><g fill="#ffffff" fill-opacity="1"><g transform="translate(14.511073, 26.713396)"><g><path d="M 0.96875 0.046875 C 0.800781 0.046875 0.65625 0.015625 0.53125 -0.046875 C 0.40625 -0.109375 0.304688 -0.195312 0.234375 -0.3125 C 0.160156 -0.4375 0.125 -0.570312 0.125 -0.71875 C 0.125 -0.789062 0.132812 -0.867188 0.15625 -0.953125 C 0.195312 -1.148438 0.273438 -1.320312 0.390625 -1.46875 C 0.503906 -1.625 0.644531 -1.742188 0.8125 -1.828125 C 0.988281 -1.910156 1.179688 -1.953125 1.390625 -1.953125 C 1.546875 -1.953125 1.6875 -1.921875 1.8125 -1.859375 C 1.945312 -1.796875 2.046875 -1.707031 2.109375 -1.59375 C 2.179688 -1.476562 2.21875 -1.34375 2.21875 -1.1875 C 2.21875 -1.113281 2.207031 -1.035156 2.1875 -0.953125 C 2.144531 -0.753906 2.066406 -0.578125 1.953125 -0.421875 C 1.835938 -0.273438 1.691406 -0.160156 1.515625 -0.078125 C 1.347656 0.00390625 1.164062 0.046875 0.96875 0.046875 Z M 1.046875 -0.34375 C 1.148438 -0.34375 1.253906 -0.367188 1.359375 -0.421875 C 1.460938 -0.472656 1.550781 -0.539062 1.625 -0.625 C 1.695312 -0.71875 1.742188 -0.828125 1.765625 -0.953125 C 1.785156 -1.023438 1.796875 -1.085938 1.796875 -1.140625 C 1.796875 -1.273438 1.753906 -1.378906 1.671875 -1.453125 C 1.585938 -1.523438 1.460938 -1.5625 1.296875 -1.5625 C 1.191406 -1.5625 1.085938 -1.535156 0.984375 -1.484375 C 0.878906 -1.429688 0.789062 -1.359375 0.71875 -1.265625 C 0.644531 -1.179688 0.597656 -1.078125 0.578125 -0.953125 C 0.566406 -0.878906 0.5625 -0.816406 0.5625 -0.765625 C 0.5625 -0.628906 0.597656 -0.523438 0.671875 -0.453125 C 0.753906 -0.378906 0.878906 -0.34375 1.046875 -0.34375 Z M 1.046875 -0.34375 "/></g></g></g><g fill="#ffffff" fill-opacity="1"><g transform="translate(16.683017, 26.713396)"><g><path d="M 0.40625 -1.90625 L 0.828125 -1.90625 L 0.5 -0.34375 L 1.375 -0.34375 L 1.296875 0 L 0 0 Z M 0.40625 -1.90625 "/></g></g></g><g fill="#ffffff" fill-opacity="1"><g transform="translate(18.109125, 26.713396)"><g><path d="M 0.96875 0.046875 C 0.800781 0.046875 0.65625 0.015625 0.53125 -0.046875 C 0.40625 -0.109375 0.304688 -0.195312 0.234375 -0.3125 C 0.160156 -0.4375 0.125 -0.570312 0.125 -0.71875 C 0.125 -0.789062 0.132812 -0.867188 0.15625 -0.953125 C 0.195312 -1.148438 0.273438 -1.320312 0.390625 -1.46875 C 0.503906 -1.625 0.644531 -1.742188 0.8125 -1.828125 C 0.988281 -1.910156 1.179688 -1.953125 1.390625 -1.953125 C 1.546875 -1.953125 1.6875 -1.921875 1.8125 -1.859375 C 1.945312 -1.796875 2.046875 -1.707031 2.109375 -1.59375 C 2.179688 -1.476562 2.21875 -1.34375 2.21875 -1.1875 C 2.21875 -1.113281 2.207031 -1.035156 2.1875 -0.953125 C 2.144531 -0.753906 2.066406 -0.578125 1.953125 -0.421875 C 1.835938 -0.273438 1.691406 -0.160156 1.515625 -0.078125 C 1.347656 0.00390625 1.164062 0.046875 0.96875 0.046875 Z M 1.046875 -0.34375 C 1.148438 -0.34375 1.253906 -0.367188 1.359375 -0.421875 C 1.460938 -0.472656 1.550781 -0.539062 1.625 -0.625 C 1.695312 -0.71875 1.742188 -0.828125 1.765625 -0.953125 C 1.785156 -1.023438 1.796875 -1.085938 1.796875 -1.140625 C 1.796875 -1.273438 1.753906 -1.378906 1.671875 -1.453125 C 1.585938 -1.523438 1.460938 -1.5625 1.296875 -1.5625 C 1.191406 -1.5625 1.085938 -1.535156 0.984375 -1.484375 C 0.878906 -1.429688 0.789062 -1.359375 0.71875 -1.265625 C 0.644531 -1.179688 0.597656 -1.078125 0.578125 -0.953125 C 0.566406 -0.878906 0.5625 -0.816406 0.5625 -0.765625 C 0.5625 -0.628906 0.597656 -0.523438 0.671875 -0.453125 C 0.753906 -0.378906 0.878906 -0.34375 1.046875 -0.34375 Z M 1.046875 -0.34375 "/></g></g></g><g fill="#ffffff" fill-opacity="1"><g transform="translate(20.281068, 26.713396)"><g><path d="M 0.96875 0.046875 C 0.800781 0.046875 0.65625 0.015625 0.53125 -0.046875 C 0.40625 -0.109375 0.304688 -0.195312 0.234375 -0.3125 C 0.160156 -0.425781 0.125 -0.5625 0.125 -0.71875 C 0.125 -0.789062 0.132812 -0.867188 0.15625 -0.953125 C 0.195312 -1.160156 0.273438 -1.335938 0.390625 -1.484375 C 0.503906 -1.628906 0.648438 -1.742188 0.828125 -1.828125 C 1.003906 -1.910156 1.191406 -1.953125 1.390625 -1.953125 C 1.535156 -1.953125 1.65625 -1.9375 1.75 -1.90625 C 1.851562 -1.882812 1.945312 -1.84375 2.03125 -1.78125 L 1.9375 -1.390625 C 1.875 -1.453125 1.796875 -1.492188 1.703125 -1.515625 C 1.609375 -1.546875 1.5 -1.5625 1.375 -1.5625 C 1.164062 -1.5625 0.988281 -1.503906 0.84375 -1.390625 C 0.707031 -1.285156 0.617188 -1.140625 0.578125 -0.953125 C 0.554688 -0.878906 0.546875 -0.8125 0.546875 -0.75 C 0.546875 -0.46875 0.71875 -0.328125 1.0625 -0.328125 C 1.175781 -0.328125 1.28125 -0.347656 1.375 -0.390625 L 1.453125 -0.765625 L 1.15625 -0.765625 L 1.21875 -1.0625 L 1.921875 -1.0625 L 1.734375 -0.140625 C 1.523438 -0.015625 1.269531 0.046875 0.96875 0.046875 Z M 0.96875 0.046875 "/></g></g></g><g fill="#ffffff" fill-opacity="1"><g transform="translate(22.163421, 26.713396)"><g><path d="M 0.796875 -0.734375 L 0.359375 -1.90625 L 0.78125 -1.90625 L 1.078125 -1.109375 L 1.71875 -1.90625 L 2.171875 -1.90625 L 1.21875 -0.734375 L 1.0625 0 L 0.65625 0 Z M 0.796875 -0.734375 "/></g></g></g></svg>